<?xml version="1.0" standalone="no"?>
<!DOCTYPE svg PUBLIC "-//W3C//DTD SVG 20010904//EN"
 "http://www.w3.org/TR/2001/REC-SVG-20010904/DTD/svg10.dtd">
<svg version="1.0" xmlns="http://www.w3.org/2000/svg"
 width="1280.000000pt" height="586.000000pt" viewBox="0 0 1280.000000 586.000000"
 preserveAspectRatio="xMidYMid meet">
<g transform="translate(0.000000,586.000000) scale(0.100000,-0.100000)"
fill="#000000" stroke="none">
<path d="M11610 5260 c-1278 -86 -2582 -481 -4080 -1236 -393 -198 -605 -314
-1535 -841 -1031 -585 -1549 -841 -2165 -1071 -503 -188 -1054 -331 -1565
-406 -293 -43 -495 -59 -860 -66 l-350 -6 320 -2 c176 -1 383 3 460 8 890 66
1745 291 2685 707 389 172 824 397 1650 853 1009 556 1507 806 2115 1060 1044
435 2006 683 2975 766 239 21 843 24 1065 6 172 -14 419 -40 453 -47 22 -5 22
-5 22 120 0 146 20 129 -170 146 -158 14 -854 20 -1020 9z"/>
<path d="M10755 4399 c-931 -62 -1901 -297 -2925 -707 -449 -180 -710 -302
-1682 -788 -1212 -606 -1558 -762 -2123 -954 -934 -318 -1787 -452 -2673 -421
-178 7 -326 10 -329 8 -22 -23 962 -30 1182 -9 859 82 1573 258 2425 597 377
150 668 282 1370 625 916 447 1197 576 1610 742 991 398 1842 608 2825 700
218 20 962 17 1190 -5 208 -20 465 -56 662 -92 125 -23 469 -100 500 -112 10
-4 13 24 13 124 l0 129 -187 37 c-333 66 -608 103 -953 127 -167 11 -728 11
-905 -1z"/>
<path d="M10110 3633 c-678 -34 -1307 -140 -1965 -329 -586 -170 -1028 -339
-1990 -764 -1162 -514 -1607 -685 -2225 -854 -779 -214 -1599 -316 -2295 -286
-137 6 -326 17 -420 25 -279 24 -312 26 -201 10 451 -65 1152 -73 1676 -19
672 69 1351 227 2090 486 245 86 732 281 1290 518 1223 520 1742 699 2505 864
767 166 1622 217 2350 140 602 -63 1243 -216 1780 -423 44 -17 83 -31 87 -31
5 0 8 57 8 128 l0 127 -193 62 c-625 202 -1180 307 -1817 343 -157 9 -537 11
-680 3z"/>
<path d="M9165 2929 c-491 -34 -1066 -133 -1565 -269 -414 -113 -709 -214
-1560 -533 -1040 -390 -1362 -496 -1904 -627 -688 -167 -1314 -243 -1991 -243
-365 1 -610 17 -1016 69 -111 14 -203 23 -205 21 -11 -11 457 -71 716 -91 874
-69 1783 15 2724 250 428 107 774 217 1471 466 1130 405 1476 515 1955 622
337 75 599 118 960 157 247 26 876 38 1147 20 929 -60 1788 -293 2672 -722
123 -60 225 -109 227 -109 2 0 4 58 4 129 l0 128 -147 68 c-802 369 -1516 565
-2368 652 -179 18 -921 26 -1120 12z"/>
<path d="M8645 2314 c-421 -23 -841 -80 -1250 -170 -353 -77 -634 -156 -1350
-379 -1041 -324 -1459 -434 -2015 -529 -599 -103 -1106 -143 -1680 -133 -179
4 -381 11 -450 17 -194 16 -594 68 -819 105 -113 19 -206 33 -208 31 -7 -7
317 -65 527 -96 437 -63 725 -83 1190 -83 636 0 1177 53 1808 178 469 93 806
181 1637 425 783 230 1145 322 1535 389 841 146 1639 143 2445 -10 905 -171
1809 -543 2663 -1096 62 -40 115 -73 117 -73 3 0 5 60 5 133 l-1 132 -102 60
c-386 225 -682 381 -952 500 -744 329 -1488 519 -2285 585 -129 11 -691 20
-815 14z"/>
<path d="M848 1553 c6 -2 18 -2 25 0 6 3 1 5 -13 5 -14 0 -19 -2 -12 -5z"/>
<path d="M943 1543 c15 -2 37 -2 50 0 12 2 0 4 -28 4 -27 0 -38 -2 -22 -4z"/>
<path d="M873 1453 c9 -2 23 -2 30 0 6 3 -1 5 -18 5 -16 0 -22 -2 -12 -5z"/>
<path d="M818 1363 c7 -3 16 -2 19 1 4 3 -2 6 -13 5 -11 0 -14 -3 -6 -6z"/>
<path d="M873 1353 c9 -2 23 -2 30 0 6 3 -1 5 -18 5 -16 0 -22 -2 -12 -5z"/>
<path d="M828 1263 c7 -3 16 -2 19 1 4 3 -2 6 -13 5 -11 0 -14 -3 -6 -6z"/>
</g>
</svg>
